<svg width="43" height="43" viewBox="0 0 43 43" fill="none" xmlns="http://www.w3.org/2000/svg">
<path d="M21.5 36.2866C20.3583 36.2866 19.2324 36.095 18.1616 35.7407V43H24.8384V35.7406C23.7676 36.0949 22.6417 36.2866 21.5 36.2866Z" fill="#8E7E0F"/>
<path d="M35.2551 16.6657C35.5582 15.8482 35.7328 14.9676 35.7328 14.0438C35.7328 10.498 33.2854 7.5297 29.9878 6.71875C29.0783 2.86857 25.6284 0 21.5 0C17.3717 0 13.9218 2.86857 13.0123 6.71875C9.71594 7.5297 7.26729 10.498 7.26729 14.0438C7.26729 14.9676 7.44055 15.8468 7.74365 16.6657C5.5824 18.2535 4.17432 20.8072 4.17432 23.6968C4.17432 28.518 8.08093 32.4259 12.9035 32.4259C14.1252 32.4259 15.2879 32.174 16.3429 31.72C17.4124 32.6281 18.7234 33.2553 20.1642 33.4994V29.3028L14.1147 23.2507C13.5924 22.7297 13.5924 21.8846 14.1147 21.3636C14.6357 20.8413 15.4808 20.8413 16.0018 21.3636L20.1643 25.5248V20.9411L16.0149 16.7918C15.6279 16.4033 15.6279 15.776 16.0149 15.389C16.402 15.0019 17.0306 15.0019 17.4165 15.389L20.1644 18.1355V13.103C20.1644 12.3655 20.7627 11.7684 21.5002 11.7684C22.2377 11.7684 22.8361 12.3654 22.8361 13.103V18.1355L25.584 15.389C25.9698 15.0019 26.5983 15.0019 26.9855 15.389C27.3727 15.776 27.3726 16.4033 26.9855 16.7918L22.8361 20.9411V25.5248L26.9987 21.3636C27.5196 20.8413 28.3648 20.8413 28.8857 21.3636C29.408 21.8846 29.408 22.7297 28.8857 23.2507L22.8362 29.3028V33.4994C24.2771 33.2554 25.5881 32.6281 26.6575 31.7213C27.7126 32.1741 28.874 32.426 30.0957 32.426C34.9182 32.426 38.8261 28.5182 38.8261 23.6969C38.8258 20.8071 37.4177 18.2535 35.2551 16.6657Z" fill="black"/>
</svg>
