<svg width="201" height="38" viewBox="0 0 201 38" fill="none" xmlns="http://www.w3.org/2000/svg">
<path fill-rule="evenodd" clip-rule="evenodd" d="M35.8995 37.8543H23.7675C17.686 37.8543 12.4733 34.0068 10.4875 28.6079C4.46804 27.1496 0 21.7197 0 15.2348V13.7454C0 6.17459 6.17459 0 13.7454 0H35.5272C38.7231 0 41.2984 2.57533 41.2984 5.77123C41.2984 8.96712 38.7231 11.5735 35.5272 11.5735H23.7675C17.0344 11.5735 11.5735 17.0344 11.5735 23.7365C11.5735 24.8535 11.7286 25.9085 12.0079 26.9324C12.5664 27.0151 13.1456 27.0565 13.7454 27.0565H35.8995C38.8782 27.0565 41.2984 29.5077 41.2984 32.4554C41.2984 35.4341 38.8782 37.8543 35.8995 37.8543ZM12.7526 28.9803C14.7073 33.076 18.8961 35.9305 23.7675 35.9305H35.8995C37.8232 35.9305 39.3747 34.3791 39.3747 32.4554C39.3747 30.5627 37.8232 29.0113 35.8995 29.0113H13.7454C13.4145 29.0113 13.0835 29.0009 12.7526 28.9803ZM13.7454 1.92375C7.22954 1.92375 1.92374 7.22954 1.92374 13.7454V15.2348C1.92374 20.4165 5.27477 24.8225 9.89796 26.4359C9.71179 25.5672 9.61871 24.6673 9.61871 23.7365C9.61871 15.9484 15.9795 9.61871 23.7675 9.61871H35.5272C37.6371 9.61871 39.3747 7.91217 39.3747 5.77123C39.3747 3.66132 37.6371 1.92375 35.5272 1.92375H13.7454Z" fill="black"/>
<path d="M68.5412 9.4946V12.6284C67.7758 11.8838 66.8967 11.2425 65.9038 10.7047C64.3524 9.87727 62.7906 9.46356 61.2185 9.46356C58.7983 9.46356 56.7195 10.4875 54.9819 12.5354C54.1131 13.5489 53.4719 14.6556 53.0581 15.8553C52.6238 17.0551 52.4066 18.3273 52.4066 19.6718C52.4066 22.4643 53.2753 24.8638 55.0129 26.8703C56.7298 28.8768 58.819 29.88 61.2806 29.88C62.439 29.88 63.6284 29.6525 64.8488 29.1974C66.0486 28.7217 67.2794 27.9977 68.5412 27.0255V30.0352C65.7693 31.5245 63.256 32.2692 61.0013 32.2692C58.0847 32.2692 55.53 31.1419 53.3374 28.8871C50.9793 26.467 49.8002 23.4365 49.8002 19.7959C49.8002 16.2794 50.8965 13.3007 53.0892 10.8598C55.3232 8.39827 58.0847 7.16749 61.3737 7.16749C62.6562 7.16749 63.8869 7.364 65.066 7.75702C66.2451 8.15004 67.4035 8.72924 68.5412 9.4946Z" fill="black"/>
<path d="M156.785 9.4946V12.6284C156.02 11.8838 155.14 11.2425 154.148 10.7047C152.596 9.87727 151.034 9.46356 149.462 9.46356C147.042 9.46356 144.963 10.4875 143.226 12.5354C142.357 13.5489 141.716 14.6556 141.302 15.8553C140.868 17.0551 140.65 18.3273 140.65 19.6718C140.65 22.4643 141.519 24.8638 143.257 26.8703C144.974 28.8768 147.063 29.88 149.524 29.88C150.683 29.88 151.872 29.6525 153.093 29.1974C154.292 28.7217 155.523 27.9977 156.785 27.0255V30.0352C154.013 31.5245 151.5 32.2692 149.245 32.2692C146.328 32.2692 143.774 31.1419 141.581 28.8871C139.223 26.467 138.044 23.4365 138.044 19.7959C138.044 16.2794 139.14 13.3007 141.333 10.8598C143.567 8.39827 146.328 7.16749 149.617 7.16749C150.9 7.16749 152.131 7.364 153.31 7.75702C154.489 8.15004 155.647 8.72924 156.785 9.4946Z" fill="black"/>
<path d="M88.3059 7.57086H90.5399V31.8659H88.3059V7.57086Z" fill="black"/>
<path fill-rule="evenodd" clip-rule="evenodd" d="M108.071 22.8988H95.4424C95.4424 25.2776 96.0009 27.0979 97.1179 28.3597C98.2143 29.6009 99.6622 30.2214 101.462 30.2214C102.827 30.2214 104.141 29.787 105.402 28.9182C105.754 28.6907 106.126 28.4114 106.519 28.0805C106.912 27.7288 107.337 27.3254 107.792 26.8704V29.5698C107.295 29.9422 106.83 30.2731 106.395 30.5627C105.982 30.8316 105.589 31.0592 105.216 31.2453C103.913 31.928 102.61 32.2693 101.307 32.2693C99.052 32.2693 97.1386 31.4936 95.5665 29.9422C93.8703 28.308 93.0222 26.1878 93.0222 23.5814C93.0222 21.1405 93.7876 19.0927 95.3183 17.4378C96.8697 15.7623 98.7831 14.9246 101.059 14.9246C103.272 14.9246 105.03 15.7313 106.333 17.3448C107.492 18.8134 108.071 20.6648 108.071 22.8988ZM95.7527 21.0061H105.464C105.216 19.6202 104.678 18.5755 103.851 17.8722C103.044 17.1896 102.062 16.8483 100.903 16.8483C99.6209 16.8483 98.5349 17.2517 97.6454 18.0584C96.818 18.7824 96.1871 19.7649 95.7527 21.0061Z" fill="black"/>
<path d="M119.427 15.2969V17.5309C119.2 17.4482 119.013 17.3758 118.869 17.3137C118.724 17.2723 118.6 17.2413 118.496 17.2206C118.393 17.1999 118.279 17.1792 118.155 17.1586C118.052 17.1586 117.907 17.1586 117.721 17.1586C116.211 17.1586 114.969 17.8825 113.997 19.3305C113.17 20.6751 112.756 22.1748 112.756 23.8296V31.8659H110.522V15.2969H112.57L112.725 18.1515C113.242 17.2827 113.728 16.6621 114.183 16.2898C115.114 15.5244 116.231 15.1417 117.534 15.1417C117.886 15.1417 118.207 15.1521 118.496 15.1728C118.807 15.1935 119.117 15.2348 119.427 15.2969Z" fill="black"/>
<path fill-rule="evenodd" clip-rule="evenodd" d="M136.027 22.8988H123.399C123.399 25.2776 123.947 27.0979 125.043 28.3597C126.16 29.6009 127.618 30.2214 129.418 30.2214C130.783 30.2214 132.097 29.787 133.359 28.9182C133.71 28.6907 134.083 28.4114 134.476 28.0805C134.869 27.7288 135.293 27.3254 135.748 26.8704V29.5698C135.251 29.9422 134.786 30.2731 134.352 30.5627C133.938 30.8316 133.545 31.0592 133.172 31.2453C131.869 31.928 130.566 32.2693 129.263 32.2693C127.008 32.2693 125.095 31.4936 123.523 29.9422C121.827 28.308 120.978 26.1878 120.978 23.5814C120.978 21.1405 121.744 19.0927 123.275 17.4378C124.826 15.7623 126.739 14.9246 129.015 14.9246C131.228 14.9246 132.986 15.7313 134.289 17.3448C135.448 18.8134 136.027 20.6648 136.027 22.8988ZM123.709 21.0061H133.421C133.172 19.6202 132.635 18.5755 131.807 17.8722C131 17.1896 130.018 16.8483 128.86 16.8483C127.577 16.8483 126.491 17.2517 125.602 18.0584C124.774 18.7824 124.143 19.7649 123.709 21.0061Z" fill="black"/>
<path d="M167.986 15.2969V17.5309C167.758 17.4482 167.572 17.3758 167.427 17.3137C167.283 17.2723 167.159 17.2413 167.055 17.2206C166.952 17.1999 166.838 17.1792 166.714 17.1586C166.61 17.1586 166.466 17.1586 166.279 17.1586C164.769 17.1586 163.528 17.8825 162.556 19.3305C161.729 20.6751 161.315 22.1748 161.315 23.8296V31.8659H159.081V15.2969H161.129L161.284 18.1515C161.801 17.2827 162.287 16.6621 162.742 16.2898C163.673 15.5244 164.79 15.1417 166.093 15.1417C166.445 15.1417 166.766 15.1521 167.055 15.1728C167.365 15.1935 167.676 15.2348 167.986 15.2969Z" fill="black"/>
<path fill-rule="evenodd" clip-rule="evenodd" d="M198.611 7.57086H201V31.8659H198.859L198.642 29.1664C198.352 29.5801 198.063 29.9525 197.773 30.2834C197.483 30.5937 197.194 30.8626 196.904 31.0902C195.87 31.8762 194.67 32.2692 193.305 32.2692C191.174 32.2692 189.406 31.4418 187.999 29.787C186.613 28.1321 185.92 26.1257 185.92 23.7675C185.92 21.3473 186.655 19.2788 188.123 17.5619C189.613 15.8036 191.474 14.9245 193.708 14.9245C194.639 14.9245 195.508 15.09 196.315 15.421C196.604 15.5451 196.946 15.7106 197.339 15.9174C197.711 16.1243 198.135 16.3725 198.611 16.6621V7.57086ZM198.611 23.8296V19.0513C197.639 18.2032 196.791 17.6343 196.067 17.3447C195.343 17.0551 194.639 16.9103 193.957 16.9103C192.26 16.9103 190.885 17.624 189.83 19.0513C188.837 20.3958 188.341 21.9576 188.341 23.7365C188.341 25.6396 188.889 27.222 189.985 28.4838C190.999 29.6422 192.198 30.2214 193.584 30.2214C194.95 30.2214 196.129 29.6215 197.121 28.4217C198.114 27.222 198.611 25.6913 198.611 23.8296Z" fill="black"/>
<path fill-rule="evenodd" clip-rule="evenodd" d="M85.8547 22.8988H73.2263C73.2263 25.2776 73.7848 27.0979 74.9018 28.3597C75.9981 29.6009 77.4461 30.2214 79.2457 30.2214C80.6109 30.2214 81.9245 29.787 83.1863 28.9182C83.5379 28.6907 83.9103 28.4114 84.3033 28.0805C84.6963 27.7288 85.1204 27.3254 85.5754 26.8704V29.5698C85.079 29.9422 84.6239 30.2731 84.2102 30.5627C83.7758 30.8316 83.3724 31.0592 83.0001 31.2453C81.6969 31.928 80.3937 32.2693 79.0906 32.2693C76.8359 32.2693 74.9225 31.4936 73.3504 29.9422C71.6542 28.308 70.8061 26.1878 70.8061 23.5814C70.8061 21.1405 71.5714 19.0927 73.1021 17.4378C74.6536 15.7623 76.567 14.9246 78.8423 14.9246C81.0557 14.9246 82.8139 15.7313 84.1171 17.3448C85.2755 18.8134 85.8547 20.6648 85.8547 22.8988ZM73.5365 21.0061H83.2483C83.0001 19.6202 82.4726 18.5755 81.6659 17.8722C80.8385 17.1896 79.8456 16.8483 78.6872 16.8483C77.4047 16.8483 76.3187 17.2517 75.4293 18.0584C74.6018 18.7824 73.9709 19.7649 73.5365 21.0061Z" fill="black"/>
<path d="M81.5109 13.249H75.7397V11.3563H81.5109V13.249Z" fill="black"/>
<path fill-rule="evenodd" clip-rule="evenodd" d="M184.555 22.8988H171.958C171.958 25.2776 172.506 27.0979 173.602 28.3597C174.719 29.6009 176.167 30.2214 177.946 30.2214C179.311 30.2214 180.625 29.787 181.887 28.9182C182.238 28.6907 182.611 28.4114 183.004 28.0805C183.397 27.7288 183.821 27.3254 184.276 26.8704V29.5698C183.779 29.9422 183.324 30.2731 182.911 30.5627C182.476 30.8316 182.073 31.0592 181.701 31.2453C180.397 31.928 179.094 32.2693 177.791 32.2693C175.557 32.2693 173.654 31.4936 172.082 29.9422C170.386 28.308 169.538 26.1878 169.538 23.5814C169.538 21.1405 170.303 19.0927 171.834 17.4378C173.385 15.7623 175.298 14.9246 177.574 14.9246C179.766 14.9246 181.514 15.7313 182.818 17.3448C183.976 18.8134 184.555 20.6648 184.555 22.8988ZM172.268 21.0061H181.949C181.701 19.6202 181.173 18.5755 180.366 17.8722C179.539 17.1896 178.556 16.8483 177.419 16.8483C176.136 16.8483 175.05 17.2517 174.161 18.0584C173.333 18.7824 172.702 19.7649 172.268 21.0061Z" fill="black"/>
<path d="M180.211 13.249H174.471V11.3563H180.211V13.249Z" fill="black"/>
</svg>
