<svg width="180" height="34" viewBox="0 0 180 34" fill="none" xmlns="http://www.w3.org/2000/svg">
<path fill-rule="evenodd" clip-rule="evenodd" d="M32.1488 33.8994H21.2844C15.8382 33.8994 11.1701 30.4538 9.39178 25.619C4.00123 24.3131 0 19.4504 0 13.6431V12.3094C0 5.52948 5.52948 0 12.3094 0H31.8154C34.6774 0 36.9836 2.30627 36.9836 5.16826C36.9836 8.03026 34.6774 10.3643 31.8154 10.3643H21.2844C15.2547 10.3643 10.3643 15.2547 10.3643 21.2566C10.3643 22.2569 10.5032 23.2016 10.7533 24.1186C11.2535 24.1927 11.7721 24.2297 12.3094 24.2297H32.1488C34.8163 24.2297 36.9836 26.4248 36.9836 29.0645C36.9836 31.732 34.8163 33.8994 32.1488 33.8994ZM11.4202 25.9525C13.1707 29.6203 16.9219 32.1766 21.2844 32.1766H32.1488C33.8716 32.1766 35.2609 30.7873 35.2609 29.0645C35.2609 27.3696 33.8716 25.9802 32.1488 25.9802H12.3094C12.013 25.9802 11.7166 25.971 11.4202 25.9525ZM12.3094 1.72276C6.47422 1.72276 1.72275 6.47422 1.72275 12.3094V13.6431C1.72275 18.2834 4.72368 22.2291 8.86385 23.674C8.69713 22.896 8.61377 22.0902 8.61377 21.2566C8.61377 14.2822 14.31 8.61377 21.2844 8.61377H31.8154C33.7048 8.61377 35.2609 7.08552 35.2609 5.16826C35.2609 3.27879 33.7048 1.72276 31.8154 1.72276H12.3094Z" fill="#FADC00"/>
<path d="M61.38 8.50275V11.3092C60.6946 10.6423 59.9074 10.068 59.0182 9.58641C57.6289 8.84544 56.2303 8.47496 54.8224 8.47496C52.6551 8.47496 50.7934 9.39191 49.2374 11.2258C48.4594 12.1335 47.8851 13.1245 47.5146 14.1989C47.1256 15.2733 46.9311 16.4126 46.9311 17.6167C46.9311 20.1174 47.7091 22.2662 49.2652 24.0631C50.8027 25.8599 52.6736 26.7584 54.878 26.7584C55.9154 26.7584 56.9805 26.5546 58.0735 26.1471C59.1479 25.721 60.25 25.0727 61.38 24.202V26.8973C58.8978 28.2311 56.6471 28.8979 54.6279 28.8979C52.016 28.8979 49.7283 27.8883 47.7647 25.8692C45.653 23.7019 44.5971 20.9881 44.5971 17.7278C44.5971 14.5787 45.5789 11.9112 47.5424 9.72534C49.543 7.52096 52.016 6.41877 54.9614 6.41877C56.1099 6.41877 57.2121 6.59475 58.268 6.94671C59.3238 7.29867 60.3612 7.81735 61.38 8.50275Z" fill="#FADC00"/>
<path d="M140.404 8.50275V11.3092C139.719 10.6423 138.932 10.068 138.043 9.58641C136.653 8.84544 135.255 8.47496 133.847 8.47496C131.679 8.47496 129.818 9.39191 128.262 11.2258C127.484 12.1335 126.909 13.1245 126.539 14.1989C126.15 15.2733 125.955 16.4126 125.955 17.6167C125.955 20.1174 126.733 22.2662 128.289 24.0631C129.827 25.8599 131.698 26.7584 133.902 26.7584C134.94 26.7584 136.005 26.5546 137.098 26.1471C138.172 25.721 139.274 25.0727 140.404 24.202V26.8973C137.922 28.2311 135.671 28.8979 133.652 28.8979C131.04 28.8979 128.753 27.8883 126.789 25.8692C124.677 23.7019 123.621 20.9881 123.621 17.7278C123.621 14.5787 124.603 11.9112 126.567 9.72534C128.567 7.52096 131.04 6.41877 133.986 6.41877C135.134 6.41877 136.236 6.59475 137.292 6.94671C138.348 7.29867 139.386 7.81735 140.404 8.50275Z" fill="#FADC00"/>
<path d="M79.0798 6.77997H81.0804V28.5367H79.0798V6.77997Z" fill="#FADC00"/>
<path fill-rule="evenodd" clip-rule="evenodd" d="M96.7799 20.5065H85.4708C85.4708 22.6368 85.971 24.2669 86.9713 25.3969C87.9531 26.5084 89.2498 27.0641 90.8614 27.0641C92.084 27.0641 93.2603 26.6751 94.3902 25.8971C94.7051 25.6933 95.0386 25.4432 95.3905 25.1468C95.7425 24.8319 96.1223 24.4707 96.5298 24.0632V26.4806C96.0852 26.814 95.6684 27.1104 95.2794 27.3697C94.9089 27.6106 94.557 27.8143 94.2235 27.981C93.0565 28.5923 91.8895 28.898 90.7224 28.898C88.7033 28.898 86.9898 28.2033 85.582 26.814C84.063 25.3506 83.3035 23.4519 83.3035 21.1178C83.3035 18.932 83.9889 17.0981 85.3597 15.6161C86.749 14.1157 88.4625 13.3654 90.5001 13.3654C92.4822 13.3654 94.0568 14.0879 95.2238 15.5328C96.2612 16.848 96.7799 18.5059 96.7799 20.5065ZM85.7487 18.8115H94.4458C94.2235 17.5704 93.7419 16.6349 93.0009 16.0051C92.2785 15.3938 91.3986 15.0882 90.3612 15.0882C89.2127 15.0882 88.2402 15.4494 87.4436 16.1718C86.7027 16.8202 86.1377 17.7001 85.7487 18.8115Z" fill="#FADC00"/>
<path d="M106.95 13.6989V15.6995C106.746 15.6254 106.579 15.5606 106.449 15.505C106.32 15.4679 106.209 15.4402 106.116 15.4216C106.023 15.4031 105.922 15.3846 105.81 15.3661C105.718 15.3661 105.588 15.3661 105.421 15.3661C104.069 15.3661 102.958 16.0144 102.087 17.3111C101.346 18.5152 100.976 19.8582 100.976 21.3401V28.5368H98.9749V13.6989H100.809L100.948 16.2552C101.411 15.4772 101.846 14.9215 102.254 14.588C103.087 13.9026 104.088 13.5599 105.255 13.5599C105.57 13.5599 105.857 13.5692 106.116 13.5877C106.394 13.6063 106.672 13.6433 106.95 13.6989Z" fill="#FADC00"/>
<path fill-rule="evenodd" clip-rule="evenodd" d="M121.815 20.5065H110.506C110.506 22.6368 110.997 24.2669 111.979 25.3969C112.979 26.5084 114.285 27.0641 115.897 27.0641C117.119 27.0641 118.296 26.6751 119.426 25.8971C119.74 25.6933 120.074 25.4432 120.426 25.1468C120.778 24.8319 121.158 24.4707 121.565 24.0632V26.4806C121.12 26.814 120.704 27.1104 120.315 27.3697C119.944 27.6106 119.592 27.8143 119.259 27.981C118.092 28.5923 116.925 28.898 115.758 28.898C113.739 28.898 112.025 28.2033 110.617 26.814C109.098 25.3506 108.339 23.4519 108.339 21.1178C108.339 18.932 109.024 17.0981 110.395 15.6161C111.784 14.1157 113.498 13.3654 115.535 13.3654C117.518 13.3654 119.092 14.0879 120.259 15.5328C121.296 16.848 121.815 18.5059 121.815 20.5065ZM110.784 18.8115H119.481C119.259 17.5704 118.777 16.6349 118.036 16.0051C117.314 15.3938 116.434 15.0882 115.397 15.0882C114.248 15.0882 113.275 15.4494 112.479 16.1718C111.738 16.8202 111.173 17.7001 110.784 18.8115Z" fill="#FADC00"/>
<path d="M150.435 13.6989V15.6995C150.231 15.6254 150.065 15.5606 149.935 15.505C149.805 15.4679 149.694 15.4402 149.602 15.4216C149.509 15.4031 149.407 15.3846 149.296 15.3661C149.203 15.3661 149.074 15.3661 148.907 15.3661C147.555 15.3661 146.443 16.0144 145.573 17.3111C144.832 18.5152 144.461 19.8582 144.461 21.3401V28.5368H142.461V13.6989H144.294L144.433 16.2552C144.896 15.4772 145.332 14.9215 145.739 14.588C146.573 13.9026 147.573 13.5599 148.74 13.5599C149.055 13.5599 149.342 13.5692 149.602 13.5877C149.879 13.6063 150.157 13.6433 150.435 13.6989Z" fill="#FADC00"/>
<path fill-rule="evenodd" clip-rule="evenodd" d="M177.86 6.77997H180V28.5367H178.083L177.888 26.1193C177.629 26.4898 177.37 26.8232 177.11 27.1196C176.851 27.3974 176.591 27.6383 176.332 27.842C175.406 28.546 174.332 28.8979 173.109 28.8979C171.201 28.8979 169.617 28.1569 168.357 26.675C167.116 25.1931 166.496 23.3962 166.496 21.2844C166.496 19.1171 167.153 17.2647 168.469 15.7272C169.802 14.1526 171.47 13.3653 173.47 13.3653C174.304 13.3653 175.082 13.5135 175.804 13.8099C176.064 13.9211 176.369 14.0693 176.721 14.2545C177.055 14.4397 177.434 14.662 177.86 14.9214V6.77997ZM177.86 21.34V17.0609C176.99 16.3014 176.23 15.792 175.582 15.5327C174.934 15.2733 174.304 15.1437 173.692 15.1437C172.173 15.1437 170.942 15.7828 169.997 17.0609C169.108 18.265 168.663 19.6636 168.663 21.2567C168.663 22.9609 169.154 24.378 170.136 25.508C171.043 26.5453 172.118 27.064 173.359 27.064C174.582 27.064 175.637 26.5268 176.527 25.4524C177.416 24.378 177.86 23.0072 177.86 21.34Z" fill="#FADC00"/>
<path fill-rule="evenodd" clip-rule="evenodd" d="M76.8847 20.5063H65.5757C65.5757 22.6366 66.0758 24.2667 67.0762 25.3967C68.0579 26.5081 69.3546 27.0639 70.9662 27.0639C72.1888 27.0639 73.3651 26.6748 74.4951 25.8968C74.81 25.6931 75.1435 25.443 75.4954 25.1466C75.8474 24.8317 76.2271 24.4704 76.6347 24.0629V26.4803C76.1901 26.8138 75.7825 27.1102 75.4121 27.3695C75.0231 27.6103 74.6618 27.8141 74.3284 27.9808C73.1614 28.5921 71.9943 28.8977 70.8273 28.8977C68.8082 28.8977 67.0947 28.2031 65.6868 26.8138C64.1679 25.3504 63.4084 23.4516 63.4084 21.1176C63.4084 18.9317 64.0938 17.0978 65.4646 15.6159C66.8539 14.1154 68.5674 13.3652 70.605 13.3652C72.5871 13.3652 74.1617 14.0876 75.3287 15.5325C76.3661 16.8477 76.8847 18.5056 76.8847 20.5063ZM65.8536 18.8113H74.5507C74.3284 17.5702 73.856 16.6347 73.1336 16.0049C72.3926 15.3936 71.5035 15.0879 70.4661 15.0879C69.3176 15.0879 68.3451 15.4492 67.5485 16.1716C66.8076 16.8199 66.2426 17.6998 65.8536 18.8113Z" fill="#FADC00"/>
<path d="M72.9948 11.8648H67.8266V10.1698H72.9948V11.8648Z" fill="#FADC00"/>
<path fill-rule="evenodd" clip-rule="evenodd" d="M165.273 20.5063H153.992C153.992 22.6366 154.483 24.2667 155.465 25.3967C156.465 26.5081 157.762 27.0639 159.355 27.0639C160.577 27.0639 161.754 26.6748 162.884 25.8968C163.198 25.6931 163.532 25.443 163.884 25.1466C164.236 24.8317 164.616 24.4704 165.023 24.0629V26.4803C164.579 26.8138 164.171 27.1102 163.801 27.3695C163.412 27.6103 163.05 27.8141 162.717 27.9808C161.55 28.5921 160.383 28.8977 159.216 28.8977C157.215 28.8977 155.511 28.2031 154.103 26.8138C152.584 25.3504 151.825 23.4516 151.825 21.1176C151.825 18.9317 152.51 17.0978 153.881 15.6159C155.27 14.1154 156.984 13.3652 159.021 13.3652C160.985 13.3652 162.55 14.0876 163.717 15.5325C164.755 16.8477 165.273 18.5056 165.273 20.5063ZM154.27 18.8113H162.939C162.717 17.5702 162.245 16.6347 161.522 16.0049C160.781 15.3936 159.901 15.0879 158.882 15.0879C157.734 15.0879 156.761 15.4492 155.965 16.1716C155.224 16.8199 154.659 17.6998 154.27 18.8113Z" fill="#FADC00"/>
<path d="M161.383 11.8648H156.243V10.1698H161.383V11.8648Z" fill="#FADC00"/>
</svg>
