<svg width="56" height="51" viewBox="0 0 56 51" fill="none" xmlns="http://www.w3.org/2000/svg">
<g filter="url(#filter0_d_6_403)">
<circle cx="27.0002" cy="24" r="21" fill="#2B2B2B"/>
<path d="M20 51C8.95431 51 -3.91405e-07 42.0457 -8.74228e-07 31L-2.22928e-06 3.8147e-06L36 2.24109e-06C47.0457 1.75826e-06 56 8.95431 56 20L56 51L20 51Z" fill="#2A2A2A"/>
<path opacity="0.4" d="M22.3244 14H31.6667C35.0711 14 37 15.9289 37 19.3333V28.6667C37 32.0711 35.0711 34 31.6667 34H22.3244C18.92 34 17 32.0711 17 28.6667V19.3333C17 15.9289 18.92 14 22.3244 14Z" fill="#FADC00"/>
<path d="M26.8354 21.3689C27.2888 21.3689 27.6621 21.7422 27.6621 22.2045V29.0756C27.6621 29.5289 27.2888 29.9022 26.8354 29.9022C26.3732 29.9022 25.9999 29.5289 25.9999 29.0756V22.2045C25.9999 21.7422 26.3732 21.3689 26.8354 21.3689Z" fill="#FADC00"/>
<path d="M31.8354 18.0889C32.2888 18.0889 32.6621 18.4622 32.6621 18.9244V29.0755C32.6621 29.5289 32.2888 29.9022 31.8354 29.9022C31.3732 29.9022 30.9999 29.5289 30.9999 29.0755V18.9244C30.9999 18.4622 31.3732 18.0889 31.8354 18.0889Z" fill="#FADC00"/>
<path d="M22.3602 24.9956C22.8225 24.9956 23.1958 25.3689 23.1958 25.8312V29.0756C23.1958 29.5289 22.8225 29.9023 22.3691 29.9023C21.9069 29.9023 21.5336 29.5289 21.5336 29.0756V25.8312C21.5336 25.3689 21.9069 24.9956 22.3602 24.9956Z" fill="#FADC00"/>
</g>
<defs>
<filter id="filter0_d_6_403" x="-30" y="-15" width="116" height="111" filterUnits="userSpaceOnUse" color-interpolation-filters="sRGB">
<feFlood flood-opacity="0" result="BackgroundImageFix"/>
<feColorMatrix in="SourceAlpha" type="matrix" values="0 0 0 0 0 0 0 0 0 0 0 0 0 0 0 0 0 0 127 0" result="hardAlpha"/>
<feOffset dy="15"/>
<feGaussianBlur stdDeviation="15"/>
<feComposite in2="hardAlpha" operator="out"/>
<feColorMatrix type="matrix" values="0 0 0 0 0 0 0 0 0 0 0 0 0 0 0 0 0 0 0.25 0"/>
<feBlend mode="normal" in2="BackgroundImageFix" result="effect1_dropShadow_6_403"/>
<feBlend mode="normal" in="SourceGraphic" in2="effect1_dropShadow_6_403" result="shape"/>
</filter>
</defs>
</svg>
