<svg width="26" height="26" viewBox="0 0 26 26" fill="none" xmlns="http://www.w3.org/2000/svg">
<path opacity="0.4" d="M17.5403 2.16667H8.46083C5.1675 2.16667 3.25 4.095 3.25 7.39917V18.59C3.25 21.9483 5.1675 23.8333 8.46083 23.8333H17.5403C20.8867 23.8333 22.75 21.9483 22.75 18.59V7.39917C22.75 4.095 20.8867 2.16667 17.5403 2.16667Z" fill="#1C1B1B"/>
<path fill-rule="evenodd" clip-rule="evenodd" d="M8.75329 7.20406V7.21489C8.28637 7.21489 7.90829 7.59406 7.90829 8.05989C7.90829 8.52572 8.28637 8.90489 8.75329 8.90489H11.9914C12.4583 8.90489 12.8375 8.52572 12.8375 8.04797C12.8375 7.58322 12.4583 7.20406 11.9914 7.20406H8.75329ZM17.2467 13.8016H8.75329C8.28637 13.8016 7.90829 13.4224 7.90829 12.9566C7.90829 12.4907 8.28637 12.1105 8.75329 12.1105H17.2467C17.7125 12.1105 18.0917 12.4907 18.0917 12.9566C18.0917 13.4224 17.7125 13.8016 17.2467 13.8016ZM17.2467 18.7524H8.75329C8.42829 18.7957 8.11412 18.6332 7.94079 18.3624C7.76746 18.0807 7.76746 17.7232 7.94079 17.4524C8.11412 17.1707 8.42829 17.0191 8.75329 17.0516H17.2467C17.6789 17.0949 18.005 17.4632 18.005 17.9074C18.005 18.3396 17.6789 18.7091 17.2467 18.7524Z" fill="#1C1B1B"/>
</svg>
