<svg width="195" height="37" viewBox="0 0 195 37" fill="none" xmlns="http://www.w3.org/2000/svg">
<path d="M65.4679 9.06888V12.0622C64.7368 11.3509 63.8971 10.7384 62.9487 10.2247C61.4669 9.4344 59.9752 9.03925 58.4736 9.03925C56.1619 9.03925 54.1762 10.0173 52.5166 11.9733C51.6867 12.9414 51.0742 13.9985 50.6791 15.1444C50.2641 16.2904 50.0567 17.5055 50.0567 18.7898C50.0567 21.4571 50.8865 23.749 52.5462 25.6655C54.1861 27.582 56.1816 28.5403 58.5328 28.5403C59.6393 28.5403 60.7754 28.323 61.9411 27.8883C63.087 27.4339 64.2626 26.7423 65.4679 25.8137V28.6885C62.8203 30.1111 60.4197 30.8223 58.2661 30.8223C55.4802 30.8223 53.0401 29.7455 50.9458 27.5919C48.6934 25.2802 47.5672 22.3857 47.5672 18.9083C47.5672 15.5495 48.6144 12.7043 50.7087 10.3729C52.8425 8.02171 55.4803 6.84612 58.6218 6.84612C59.8468 6.84612 61.0224 7.03382 62.1486 7.40922C63.2748 7.78462 64.3812 8.33784 65.4679 9.06888Z" fill="#FADC00"/>
<path d="M149.755 9.06888V12.0622C149.024 11.3509 148.184 10.7384 147.236 10.2247C145.754 9.4344 144.262 9.03925 142.761 9.03925C140.449 9.03925 138.463 10.0173 136.804 11.9733C135.974 12.9414 135.361 13.9985 134.966 15.1444C134.551 16.2904 134.344 17.5055 134.344 18.7898C134.344 21.4571 135.174 23.749 136.833 25.6655C138.473 27.582 140.469 28.5403 142.82 28.5403C143.927 28.5403 145.063 28.323 146.228 27.8883C147.374 27.4339 148.55 26.7423 149.755 25.8137V28.6885C147.108 30.1111 144.707 30.8223 142.553 30.8223C139.767 30.8223 137.327 29.7455 135.233 27.5919C132.981 25.2802 131.854 22.3857 131.854 18.9083C131.854 15.5495 132.902 12.7043 134.996 10.3729C137.13 8.02171 139.768 6.84612 142.909 6.84612C144.134 6.84612 145.31 7.03382 146.436 7.40922C147.562 7.78462 148.668 8.33784 149.755 9.06888Z" fill="#FADC00"/>
<path d="M84.3466 7.23136H86.4805V30.437H84.3466V7.23136Z" fill="#FADC00"/>
<path fill-rule="evenodd" clip-rule="evenodd" d="M103.225 21.872H91.1631C91.1631 24.1442 91.6965 25.8829 92.7635 27.0881C93.8106 28.2736 95.1937 28.8663 96.9126 28.8663C98.2167 28.8663 99.4713 28.4514 100.677 27.6216C101.012 27.4042 101.368 27.1375 101.743 26.8214C102.119 26.4855 102.524 26.1002 102.959 25.6655V28.2439C102.484 28.5996 102.04 28.9157 101.625 29.1923C101.23 29.4492 100.854 29.6665 100.499 29.8443C99.2539 30.4963 98.0092 30.8223 96.7645 30.8223C94.6108 30.8223 92.7832 30.0814 91.2816 28.5996C89.6615 27.0387 88.8514 25.0135 88.8514 22.524C88.8514 20.1926 89.5825 18.2366 91.0446 16.6559C92.5264 15.0555 94.354 14.2553 96.5274 14.2553C98.6415 14.2553 100.321 15.0259 101.566 16.567C102.672 17.9698 103.225 19.7382 103.225 21.872ZM91.4594 20.0642H100.736C100.499 18.7404 99.985 17.7426 99.1947 17.0708C98.4241 16.4188 97.4856 16.0928 96.3792 16.0928C95.1542 16.0928 94.1169 16.4781 93.2673 17.2487C92.477 17.9402 91.8744 18.8787 91.4594 20.0642Z" fill="#FADC00"/>
<path d="M114.072 14.611V16.7449C113.855 16.6659 113.677 16.5967 113.539 16.5374C113.401 16.4979 113.282 16.4683 113.183 16.4485C113.084 16.4288 112.976 16.409 112.857 16.3892C112.758 16.3892 112.62 16.3892 112.442 16.3892C111 16.3892 109.815 17.0808 108.886 18.4638C108.096 19.7481 107.7 21.1805 107.7 22.7612V30.4371H105.567V14.611H107.523L107.671 17.3376C108.165 16.5078 108.629 15.915 109.064 15.5594C109.953 14.8284 111.02 14.4628 112.265 14.4628C112.6 14.4628 112.907 14.4727 113.183 14.4925C113.48 14.5122 113.776 14.5517 114.072 14.611Z" fill="#FADC00"/>
<path fill-rule="evenodd" clip-rule="evenodd" d="M129.928 21.872H117.866C117.866 24.1442 118.389 25.8829 119.437 27.0881C120.504 28.2736 121.896 28.8663 123.615 28.8663C124.919 28.8663 126.174 28.4514 127.379 27.6216C127.715 27.4042 128.071 27.1375 128.446 26.8214C128.822 26.4855 129.227 26.1002 129.661 25.6655V28.2439C129.187 28.5996 128.743 28.9157 128.328 29.1923C127.932 29.4492 127.557 29.6665 127.201 29.8443C125.957 30.4963 124.712 30.8223 123.467 30.8223C121.314 30.8223 119.486 30.0814 117.984 28.5996C116.364 27.0387 115.554 25.0135 115.554 22.524C115.554 20.1926 116.285 18.2366 117.747 16.6559C119.229 15.0555 121.057 14.2553 123.23 14.2553C125.344 14.2553 127.024 15.0259 128.268 16.567C129.375 17.9698 129.928 19.7382 129.928 21.872ZM118.162 20.0642H127.439C127.201 18.7404 126.688 17.7426 125.897 17.0708C125.127 16.4188 124.188 16.0928 123.082 16.0928C121.857 16.0928 120.82 16.4781 119.97 17.2487C119.18 17.9402 118.577 18.8787 118.162 20.0642Z" fill="#FADC00"/>
<path d="M160.454 14.611V16.7449C160.237 16.6659 160.059 16.5967 159.921 16.5374C159.782 16.4979 159.664 16.4683 159.565 16.4485C159.466 16.4288 159.358 16.409 159.239 16.3892C159.14 16.3892 159.002 16.3892 158.824 16.3892C157.382 16.3892 156.196 17.0808 155.268 18.4638C154.477 19.7481 154.082 21.1805 154.082 22.7612V30.4371H151.948V14.611H153.904L154.053 17.3376C154.546 16.5078 155.011 15.915 155.445 15.5594C156.335 14.8284 157.401 14.4628 158.646 14.4628C158.982 14.4628 159.288 14.4727 159.565 14.4925C159.861 14.5122 160.158 14.5517 160.454 14.611Z" fill="#FADC00"/>
<path fill-rule="evenodd" clip-rule="evenodd" d="M189.706 7.23136H191.988V30.437H189.943L189.735 27.8586C189.459 28.2538 189.182 28.6094 188.905 28.9255C188.629 29.2219 188.352 29.4788 188.076 29.6961C187.088 30.4469 185.942 30.8223 184.638 30.8223C182.603 30.8223 180.913 30.032 179.57 28.4514C178.246 26.8707 177.584 24.9542 177.584 22.7018C177.584 20.3901 178.286 18.4143 179.688 16.7744C181.111 15.095 182.889 14.2553 185.023 14.2553C185.912 14.2553 186.742 14.4134 187.513 14.7295C187.789 14.848 188.115 15.0061 188.491 15.2037C188.846 15.4013 189.251 15.6384 189.706 15.915V7.23136ZM189.706 22.7611V18.197C188.777 17.3869 187.967 16.8436 187.275 16.567C186.584 16.2904 185.912 16.1521 185.26 16.1521C183.64 16.1521 182.326 16.8337 181.318 18.197C180.37 19.4813 179.896 20.973 179.896 22.6722C179.896 24.4899 180.419 26.0014 181.467 27.2066C182.435 28.3131 183.581 28.8663 184.904 28.8663C186.209 28.8663 187.335 28.2933 188.283 27.1473C189.231 26.0014 189.706 24.5393 189.706 22.7611Z" fill="#FADC00"/>
<path fill-rule="evenodd" clip-rule="evenodd" d="M34.2899 36.157H22.7018C16.893 36.157 11.914 32.482 10.0173 27.3252C4.26772 25.9323 0 20.7458 0 14.5517V13.1291C0 5.89773 5.89775 0 13.1292 0H33.9342C36.9868 0 39.4467 2.45986 39.4467 5.51246C39.4467 8.56506 36.9868 11.0546 33.9342 11.0546H22.7018C16.2706 11.0546 11.0546 16.2706 11.0546 22.6722C11.0546 23.7391 11.2028 24.7468 11.4695 25.7248C12.003 25.8038 12.5562 25.8434 13.1292 25.8434H34.2899C37.135 25.8434 39.4467 28.1847 39.4467 31.0002C39.4467 33.8453 37.135 36.157 34.2899 36.157ZM12.1807 27.6808C14.0479 31.5929 18.0489 34.3195 22.7018 34.3195H34.2899C36.1274 34.3195 37.6092 32.8376 37.6092 31.0002C37.6092 29.1923 36.1274 27.7105 34.2899 27.7105H13.1292C12.813 27.7105 12.4969 27.7006 12.1807 27.6808ZM13.1292 1.83749C6.90541 1.83749 1.83751 6.90539 1.83751 13.1291V14.5517C1.83751 19.5011 5.03828 23.7095 9.45417 25.2506C9.27635 24.4208 9.18743 23.5613 9.18743 22.6722C9.18743 15.2334 15.263 9.18743 22.7018 9.18743H33.9342C35.9495 9.18743 37.6092 7.5574 37.6092 5.51246C37.6092 3.49715 35.9495 1.83749 33.9342 1.83749H13.1292Z" fill="#FADC00"/>
<path fill-rule="evenodd" clip-rule="evenodd" d="M82.0053 21.872H69.943C69.943 24.1442 70.4765 25.8829 71.5434 27.0881C72.5906 28.2736 73.9737 28.8663 75.6926 28.8663C76.9966 28.8663 78.2512 28.4514 79.4565 27.6216C79.7924 27.4042 80.148 27.1375 80.5234 26.8214C80.8988 26.4855 81.3039 26.1002 81.7385 25.6655V28.2439C81.2643 28.5996 80.8297 28.9157 80.4345 29.1923C80.0196 29.4492 79.6343 29.6665 79.2787 29.8443C78.0339 30.4963 76.7892 30.8223 75.5444 30.8223C73.3908 30.8223 71.5632 30.0814 70.0616 28.5996C68.4414 27.0387 67.6314 25.0135 67.6314 22.524C67.6314 20.1926 68.3624 18.2366 69.8245 16.6559C71.3063 15.0555 73.1339 14.2553 75.3073 14.2553C77.4214 14.2553 79.1008 15.0259 80.3456 16.567C81.452 17.9698 82.0053 19.7382 82.0053 21.872ZM70.2394 20.0642H79.5158C79.2787 18.7404 78.7749 17.7426 78.0043 17.0708C77.214 16.4188 76.2656 16.0928 75.1591 16.0928C73.9341 16.0928 72.8968 16.4781 72.0473 17.2487C71.2569 17.9402 70.6543 18.8787 70.2394 20.0642Z" fill="#FADC00"/>
<path d="M77.8561 12.6549H72.3436V10.8471H77.8561V12.6549Z" fill="#FADC00"/>
<path fill-rule="evenodd" clip-rule="evenodd" d="M176.28 21.872H164.248C164.248 24.1442 164.771 25.8829 165.818 27.0881C166.885 28.2736 168.268 28.8663 169.968 28.8663C171.272 28.8663 172.526 28.4514 173.731 27.6216C174.067 27.4042 174.423 27.1375 174.798 26.8214C175.174 26.4855 175.579 26.1002 176.013 25.6655V28.2439C175.539 28.5996 175.105 28.9157 174.709 29.1923C174.295 29.4492 173.909 29.6665 173.554 29.8443C172.309 30.4963 171.064 30.8223 169.819 30.8223C167.686 30.8223 165.868 30.0814 164.366 28.5996C162.746 27.0387 161.936 25.0135 161.936 22.524C161.936 20.1926 162.667 18.2366 164.129 16.6559C165.611 15.0555 167.439 14.2553 169.612 14.2553C171.706 14.2553 173.376 15.0259 174.621 16.567C175.727 17.9698 176.28 19.7382 176.28 21.872ZM164.544 20.0642H173.791C173.554 18.7404 173.05 17.7426 172.279 17.0708C171.489 16.4188 170.55 16.0928 169.464 16.0928C168.239 16.0928 167.201 16.4781 166.352 17.2487C165.562 17.9402 164.959 18.8787 164.544 20.0642Z" fill="#FADC00"/>
<path d="M172.131 12.6549H166.648V10.8471H172.131V12.6549Z" fill="#FADC00"/>
</svg>
