<svg width="24" height="24" viewBox="0 0 24 24" fill="none" xmlns="http://www.w3.org/2000/svg">
<path opacity="0.4" d="M1.99993 12C1.99993 6.485 6.48593 2 11.9999 2C17.5139 2 21.9999 6.485 21.9999 12C21.9999 17.514 17.5139 22 11.9999 22C6.48593 22 1.99993 17.514 1.99993 12Z" fill="#FADC00"/>
<path d="M7.77923 13.4425C7.77923 13.2515 7.85223 13.0595 7.99823 12.9135L11.4682 9.42653C11.6092 9.28553 11.8002 9.20653 12.0002 9.20653C12.1992 9.20653 12.3902 9.28553 12.5312 9.42653L16.0032 12.9135C16.2952 13.2065 16.2952 13.6805 16.0012 13.9735C15.7072 14.2655 15.2322 14.2645 14.9402 13.9715L12.0002 11.0185L9.06023 13.9715C8.76823 14.2645 8.29423 14.2655 8.00023 13.9735C7.85223 13.8275 7.77923 13.6345 7.77923 13.4425Z" fill="#FADC00"/>
</svg>
