<svg width="27" height="27" viewBox="0 0 27 27" fill="none" xmlns="http://www.w3.org/2000/svg">
<path d="M21.4313 5.52376C20.3999 4.48192 19.1714 3.65588 17.8174 3.09381C16.4634 2.53174 15.011 2.2449 13.545 2.25001C7.40252 2.25001 2.39627 7.25625 2.39627 13.3988C2.39627 15.3675 2.91377 17.28 3.88127 18.9675L2.30627 24.75L8.21252 23.1975C9.84377 24.0863 11.6775 24.5588 13.545 24.5588C19.6875 24.5588 24.6938 19.5525 24.6938 13.41C24.6938 10.4288 23.535 7.62751 21.4313 5.52376ZM13.545 22.6688C11.88 22.6688 10.2488 22.2188 8.82002 21.375L8.48252 21.1725L4.97252 22.095L5.90627 18.675L5.68127 18.3263C4.75624 16.8491 4.26506 15.1417 4.26377 13.3988C4.26377 8.29125 8.42627 4.12876 13.5338 4.12876C16.0088 4.12876 18.3375 5.09626 20.0813 6.85126C20.9447 7.71071 21.6289 8.733 22.0943 9.85886C22.5597 10.9847 22.7971 12.1918 22.7925 13.41C22.815 18.5175 18.6525 22.6688 13.545 22.6688ZM18.63 15.7388C18.3488 15.6038 16.9763 14.9288 16.7288 14.8275C16.47 14.7375 16.29 14.6925 16.0988 14.9625C15.9075 15.2438 15.3788 15.8738 15.2213 16.0538C15.0638 16.245 14.895 16.2675 14.6138 16.1213C14.3325 15.9863 13.4325 15.6825 12.375 14.7375C11.5425 13.995 10.9913 13.0838 10.8225 12.8025C10.665 12.5213 10.8 12.375 10.9463 12.2288C11.07 12.105 11.2275 11.9025 11.3625 11.745C11.4975 11.5875 11.5538 11.4638 11.6438 11.2838C11.7338 11.0925 11.6888 10.935 11.6213 10.8C11.5538 10.665 10.9913 9.29251 10.7663 8.73001C10.5413 8.19001 10.305 8.25751 10.1363 8.24626H9.59627C9.40502 8.24626 9.11252 8.31376 8.85377 8.59501C8.60627 8.87626 7.88627 9.55126 7.88627 10.9238C7.88627 12.2963 8.88752 13.6238 9.02252 13.8038C9.15752 13.995 10.9913 16.8075 13.7813 18.0113C14.445 18.3038 14.9625 18.4725 15.3675 18.5963C16.0313 18.81 16.6388 18.7763 17.1225 18.7088C17.6625 18.63 18.7763 18.0338 19.0013 17.3813C19.2375 16.7288 19.2375 16.1775 19.1588 16.0538C19.08 15.93 18.9113 15.8738 18.63 15.7388Z" fill="white"/>
</svg>
