<svg width="43" height="43" viewBox="0 0 43 43" fill="none" xmlns="http://www.w3.org/2000/svg">
<path opacity="0.4" d="M3.58337 21.5C3.58337 11.619 11.6208 3.58337 21.5 3.58337C31.3793 3.58337 39.4167 11.619 39.4167 21.5C39.4167 31.3793 31.3793 39.4167 21.5 39.4167C11.6208 39.4167 3.58337 31.3793 3.58337 21.5Z" fill="#FADC00"/>
<path d="M13.938 24.0845C13.938 23.7423 14.0688 23.3983 14.3304 23.1367L20.5474 16.8892C20.8001 16.6366 21.1423 16.495 21.5006 16.495C21.8571 16.495 22.1993 16.6366 22.452 16.8892L28.6726 23.1367C29.1958 23.6616 29.1958 24.5109 28.669 25.0358C28.1423 25.559 27.2913 25.5572 26.7681 25.0323L21.5006 19.7415L16.2331 25.0323C15.71 25.5572 14.8607 25.559 14.334 25.0358C14.0688 24.7743 13.938 24.4285 13.938 24.0845Z" fill="#FADC00"/>
</svg>
